<svg width="33" height="32" viewBox="0 0 33 32" fill="none" xmlns="http://www.w3.org/2000/svg">
<path d="M3.16699 16C3.16699 12.2288 3.16699 10.3431 4.33857 9.17157C5.51014 8 7.39575 8 11.167 8H17.8337C21.6049 8 23.4905 8 24.6621 9.17157C25.8337 10.3431 25.8337 12.2288 25.8337 16C25.8337 19.7712 25.8337 21.6568 24.6621 22.8284C23.4905 24 21.6049 24 17.8337 24H11.167C7.39575 24 5.51014 24 4.33857 22.8284C3.16699 21.6568 3.16699 19.7712 3.16699 16Z" stroke="#2BC678" stroke-width="1.5" stroke-linecap="round"/>
<path d="M25.833 12.6666L27.2026 12.8949C28.111 13.0463 28.5651 13.122 28.9098 13.3422C29.2487 13.5588 29.5146 13.8725 29.6725 14.2425C29.833 14.6186 29.833 15.079 29.833 16C29.833 16.9209 29.833 17.3813 29.6725 17.7574C29.5146 18.1274 29.2487 18.4412 28.9098 18.6577C28.5651 18.878 28.111 18.9537 27.2026 19.105L25.833 19.3333" stroke="#2BC678" stroke-width="1.5" stroke-linecap="round"/>
<path d="M8.5 13.3334V18.6667" stroke="#2BC678" stroke-width="1.5" stroke-linecap="round"/>
<path d="M12.5 13.3334V18.6667" stroke="#2BC678" stroke-width="1.5" stroke-linecap="round"/>
<path d="M16.5 13.3334V18.6667" stroke="#2BC678" stroke-width="1.5" stroke-linecap="round"/>
<path d="M20.5 13.3334V18.6667" stroke="#2BC678" stroke-width="1.5" stroke-linecap="round"/>
</svg>
