<svg width="33" height="32" viewBox="0 0 33 32" fill="none" xmlns="http://www.w3.org/2000/svg">
<path d="M23.1668 2.66669V6.66669M9.8335 2.66669V6.66669" stroke="#FFA91A" stroke-width="1.5" stroke-linecap="round" stroke-linejoin="round"/>
<path d="M17.8333 4.66669H15.1667C10.1383 4.66669 7.6242 4.66669 6.06209 6.22878C4.5 7.79089 4.5 10.305 4.5 15.3334V18.6667C4.5 23.695 4.5 26.2092 6.06209 27.7712C7.6242 29.3334 10.1383 29.3334 15.1667 29.3334H17.8333C22.8616 29.3334 25.3759 29.3334 26.9379 27.7712C28.5 26.2092 28.5 23.695 28.5 18.6667V15.3334C28.5 10.305 28.5 7.79089 26.9379 6.22878C25.3759 4.66669 22.8616 4.66669 17.8333 4.66669Z" stroke="#FFA91A" stroke-width="1.5" stroke-linecap="round" stroke-linejoin="round"/>
<path d="M5.1665 11.3333H27.8332" stroke="#FFA91A" stroke-width="1.5" stroke-linecap="round" stroke-linejoin="round"/>
<path d="M12.5 20.6667C12.5 20.6667 14.5 21.3334 15.1667 23.3334C15.1667 23.3334 18.0687 18 21.8333 16.6667" stroke="#FFA91A" stroke-width="1.5" stroke-linecap="round" stroke-linejoin="round"/>
</svg>
