<svg width="33" height="32" viewBox="0 0 33 32" fill="none" xmlns="http://www.w3.org/2000/svg">
<path d="M26.6079 28.984H6.39266C5.77241 28.984 5.26953 28.4811 5.26953 27.8608V7.64571C5.26953 7.02546 5.77241 6.52258 6.39266 6.52258H26.6079C27.2282 6.52258 27.731 7.02546 27.731 7.64571V27.861C27.731 28.4812 27.2282 28.984 26.6079 28.984Z" fill="#F1F2F2"/>
<path d="M6.01855 27.2737C5.88105 27.2737 5.76855 27.1612 5.76855 27.0237V14.5237C5.76855 14.3849 5.88105 14.2737 6.01855 14.2737C6.1573 14.2737 6.26855 14.3849 6.26855 14.5237V27.0237C6.26855 27.1612 6.1573 27.2737 6.01855 27.2737ZM6.01855 13.7737C5.88105 13.7737 5.76855 13.6612 5.76855 13.5237C5.76855 13.3849 5.88105 13.2737 6.01855 13.2737C6.1573 13.2737 6.26855 13.3849 6.26855 13.5237C6.26855 13.6612 6.1573 13.7737 6.01855 13.7737Z" fill="white"/>
<path d="M26.6079 6.52258H26.481V26.611C26.481 27.2312 25.9782 27.734 25.3579 27.734H5.26953V27.861C5.26953 28.4812 5.77241 28.984 6.39266 28.984H26.6079C27.2282 28.984 27.731 28.4812 27.731 27.861V7.64571C27.731 7.02546 27.2282 6.52258 26.6079 6.52258Z" fill="#E6E7E8"/>
<path d="M27.0254 6.60303C27.0771 6.73215 27.1057 6.87315 27.1057 7.02078V27.236C27.1057 27.8563 26.6029 28.359 25.9826 28.359H5.76736C5.61973 28.359 5.47873 28.3305 5.34961 28.2787C5.51536 28.692 5.91973 28.984 6.39236 28.984H26.6076C27.2279 28.984 27.7307 28.4813 27.7307 27.861V7.64578C27.7307 7.17315 27.4387 6.76878 27.0254 6.60303Z" fill="#D1D3D4"/>
<path d="M26.6079 6.52258H6.39266C5.77241 6.52258 5.26953 7.02546 5.26953 7.64571V11.7948H27.7309V7.64571C27.731 7.02546 27.2282 6.52258 26.6079 6.52258Z" fill="#478CF7"/>
<path d="M11.4464 10.0294C10.852 10.0294 10.3701 9.54749 10.3701 8.95312V4.09224C10.3701 3.49787 10.852 3.01599 11.4464 3.01599C12.0407 3.01599 12.5226 3.49787 12.5226 4.09224V8.95312C12.5227 9.54749 12.0409 10.0294 11.4464 10.0294Z" fill="#FFA91A"/>
<path d="M21.5538 10.0294C20.9594 10.0294 20.4775 9.54749 20.4775 8.95312V4.09224C20.4775 3.49787 20.9594 3.01599 21.5538 3.01599C22.1482 3.01599 22.63 3.49787 22.63 4.09224V8.95312C22.63 9.54749 22.1482 10.0294 21.5538 10.0294Z" fill="#FFA91A"/>
<path d="M25.919 13.8527V16.8564C25.919 17.0037 25.7996 17.1231 25.6522 17.1231H22.6485C22.5012 17.1231 22.3818 17.0037 22.3818 16.8564V13.8527C22.3818 13.7054 22.5012 13.5861 22.6485 13.5861H25.6522C25.7996 13.5861 25.919 13.7054 25.919 13.8527Z" fill="#FFA91A"/>
<path d="M20.8194 13.8527V16.8564C20.8194 17.0037 20.7 17.1231 20.5526 17.1231H17.5489C17.4016 17.1231 17.2822 17.0037 17.2822 16.8564V13.8527C17.2822 13.7054 17.4016 13.5861 17.5489 13.5861H20.5526C20.6999 13.5861 20.8194 13.7054 20.8194 13.8527Z" fill="#FFA91A"/>
<path d="M15.7188 13.8527V16.8564C15.7188 17.0037 15.5994 17.1231 15.452 17.1231H12.4483C12.301 17.1231 12.1816 17.0037 12.1816 16.8564V13.8527C12.1816 13.7054 12.301 13.5861 12.4483 13.5861H15.452C15.5994 13.5861 15.7188 13.7054 15.7188 13.8527Z" fill="#FFA91A"/>
<path d="M10.6192 13.8527V16.8564C10.6192 17.0037 10.4998 17.1231 10.3524 17.1231H7.34866C7.20141 17.1231 7.08203 17.0037 7.08203 16.8564V13.8527C7.08203 13.7054 7.20141 13.5861 7.34866 13.5861H10.3524C10.4997 13.5861 10.6192 13.7054 10.6192 13.8527Z" fill="#FFA91A"/>
<path d="M20.8194 18.6342V21.6379C20.8194 21.7852 20.7 21.9046 20.5526 21.9046H17.5489C17.4016 21.9046 17.2822 21.7852 17.2822 21.6379V18.6342C17.2822 18.4869 17.4016 18.3676 17.5489 18.3676H20.5526C20.6999 18.3676 20.8194 18.4869 20.8194 18.6342Z" fill="#D1D3D4"/>
<path d="M15.7188 18.6342V21.6379C15.7188 21.7852 15.5994 21.9046 15.452 21.9046H12.4483C12.301 21.9046 12.1816 21.7852 12.1816 21.6379V18.6342C12.1816 18.4869 12.301 18.3676 12.4483 18.3676H15.452C15.5994 18.3676 15.7188 18.4869 15.7188 18.6342Z" fill="#D1D3D4"/>
<path d="M10.6192 18.6342V21.6379C10.6192 21.7852 10.4998 21.9046 10.3524 21.9046H7.34866C7.20141 21.9046 7.08203 21.7852 7.08203 21.6379V18.6342C7.08203 18.4869 7.20141 18.3676 7.34866 18.3676H10.3524C10.4997 18.3676 10.6192 18.4869 10.6192 18.6342Z" fill="#D1D3D4"/>
<path d="M20.8194 23.4157V26.4194C20.8194 26.5667 20.7 26.686 20.5526 26.686H17.5489C17.4016 26.686 17.2822 26.5667 17.2822 26.4194V23.4157C17.2822 23.2684 17.4016 23.149 17.5489 23.149H20.5526C20.6999 23.149 20.8194 23.2684 20.8194 23.4157Z" fill="#D1D3D4"/>
<path d="M15.7188 23.4157V26.4194C15.7188 26.5667 15.5994 26.686 15.452 26.686H12.4483C12.301 26.686 12.1816 26.5667 12.1816 26.4194V23.4157C12.1816 23.2684 12.301 23.149 12.4483 23.149H15.452C15.5994 23.149 15.7188 23.2684 15.7188 23.4157Z" fill="#D1D3D4"/>
<path d="M10.6192 23.4157V26.4194C10.6192 26.5667 10.4998 26.686 10.3524 26.686H7.34866C7.20141 26.686 7.08203 26.5667 7.08203 26.4194V23.4157C7.08203 23.2684 7.20141 23.149 7.34866 23.149H10.3524C10.4997 23.149 10.6192 23.2684 10.6192 23.4157Z" fill="#D1D3D4"/>
<path d="M25.6522 18.3676H22.6485C22.5012 18.3676 22.3818 18.4869 22.3818 18.6342V21.6379C22.3818 21.7852 22.5012 21.9046 22.6485 21.9046H25.6522C25.7995 21.9046 25.919 21.7852 25.919 21.6379V18.6342C25.919 18.4869 25.7996 18.3676 25.6522 18.3676Z" fill="#D1D3D4"/>
<path d="M25.6522 23.149H22.6485C22.5012 23.149 22.3818 23.2684 22.3818 23.4157V26.4194C22.3818 26.5667 22.5012 26.6862 22.6485 26.6862H25.6522C25.7995 26.6862 25.919 26.5668 25.919 26.4194V23.4157C25.919 23.2684 25.7996 23.149 25.6522 23.149Z" fill="#D1D3D4"/>
<path d="M5.26953 10.8066H27.7309V11.7948H5.26953V10.8066Z" fill="#377DE2"/>
<path d="M16.5003 30.6793C19.9161 30.6793 22.6852 27.9103 22.6852 24.4944C22.6852 21.0786 19.9161 18.3096 16.5003 18.3096C13.0845 18.3096 10.3154 21.0786 10.3154 24.4944C10.3154 27.9103 13.0845 30.6793 16.5003 30.6793Z" fill="#FFA91A"/>
<path d="M20.2041 19.5408C20.9772 20.5733 21.4354 21.8553 21.4354 23.2444C21.4354 26.6601 18.6664 29.4293 15.2505 29.4293C13.8614 29.4293 12.5792 28.9713 11.5469 28.198C12.6749 29.7044 14.4739 30.6793 16.5005 30.6793C19.9163 30.6793 22.6854 27.9103 22.6854 24.4944C22.6854 22.4678 21.7105 20.6689 20.2041 19.5408Z" fill="#F79219"/>
<path d="M15.8435 27.2488C15.573 27.2488 15.3025 27.1456 15.0961 26.9393L13.0146 24.8578C12.6019 24.445 12.6019 23.7758 13.0146 23.363C13.4275 22.9503 14.0966 22.9503 14.5095 23.363L15.8436 24.6972L18.4913 22.0495C18.9041 21.6368 19.5733 21.6368 19.9861 22.0495C20.3989 22.4623 20.3989 23.1315 19.9861 23.5443L16.5911 26.9393C16.3845 27.1456 16.1141 27.2488 15.8435 27.2488Z" fill="white"/>
</svg>
