<svg width="32" height="32" viewBox="0 0 32 32" fill="none" xmlns="http://www.w3.org/2000/svg">
<path d="M9.33365 8.00073C7.70613 8.00561 6.80543 8.04455 6.06529 8.3552C5.02859 8.79033 4.18433 9.59411 3.69113 10.6155C3.28856 11.4492 3.22269 12.5174 3.09093 14.6537L2.88448 18.0013C2.55684 23.3139 2.39301 25.9701 3.95191 27.6517C5.51079 29.3333 8.13703 29.3333 13.3895 29.3333H18.6111C23.8637 29.3333 26.4898 29.3333 28.0487 27.6517C29.6077 25.9701 29.4438 23.3139 29.1162 18.0013L28.9097 14.6537C28.7779 12.5174 28.7121 11.4492 28.3095 10.6155C27.8163 9.59411 26.9721 8.79033 25.9354 8.3552C25.1953 8.04455 24.2945 8.00561 22.667 8.00073" stroke="#00A5FF" stroke-width="1.5" stroke-linecap="round"/>
<path d="M22.6663 9.33329L21.4853 6.38053C20.9757 5.10657 20.5322 3.66143 19.2218 3.01269C18.5229 2.66663 17.6818 2.66663 15.9997 2.66663C14.3175 2.66663 13.4765 2.66663 12.7775 3.01269C11.4671 3.66143 11.0237 5.10657 10.5141 6.38053L9.33301 9.33329" stroke="#00A5FF" stroke-width="1.5" stroke-linecap="round" stroke-linejoin="round"/>
<path d="M20.6663 18.6667C20.6663 21.244 18.577 23.3333 15.9997 23.3333C13.4223 23.3333 11.333 21.244 11.333 18.6667C11.333 16.0893 13.4223 14 15.9997 14C18.577 14 20.6663 16.0893 20.6663 18.6667Z" stroke="#00A5FF" stroke-width="1.5"/>
<path d="M16 8H16.012" stroke="#00A5FF" stroke-width="2" stroke-linecap="round" stroke-linejoin="round"/>
</svg>
