<svg width="32" height="32" viewBox="0 0 32 32" fill="none" xmlns="http://www.w3.org/2000/svg">
<path d="M16 14.6666V26.6666" stroke="#00CB94" stroke-width="1.5" stroke-linecap="round"/>
<path d="M18.6663 12C18.6663 13.4728 17.4725 14.6667 15.9997 14.6667C14.5269 14.6667 13.333 13.4728 13.333 12C13.333 10.5273 14.5269 9.33337 15.9997 9.33337C17.4725 9.33337 18.6663 10.5273 18.6663 12Z" stroke="#00CB94" stroke-width="1.5"/>
<path d="M22.6117 8C23.4915 9.15948 24 10.5307 24 12C24 13.4693 23.4915 14.8405 22.6117 16M9.38823 8C8.50857 9.15948 8 10.5307 8 12C8 13.4693 8.50857 14.8405 9.38823 16" stroke="#00CB94" stroke-width="1.5" stroke-linecap="round" stroke-linejoin="round"/>
<path d="M27.0882 5.33337C28.5065 7.24015 29.3337 9.53316 29.3337 12C29.3337 14.467 28.5065 16.7599 27.0882 18.6667M4.91245 5.33337C3.49414 7.24015 2.66699 9.53316 2.66699 12C2.66699 14.467 3.49414 16.7599 4.91245 18.6667" stroke="#00CB94" stroke-width="1.5" stroke-linecap="round" stroke-linejoin="round"/>
</svg>
