<svg width="32" height="32" viewBox="0 0 32 32" fill="none" xmlns="http://www.w3.org/2000/svg">
<path d="M5.33301 16C5.33301 10.9717 5.33301 8.45757 6.8951 6.89547C8.45721 5.33337 10.9714 5.33337 15.9997 5.33337C21.0279 5.33337 23.5422 5.33337 25.1042 6.89547C26.6663 8.45757 26.6663 10.9717 26.6663 16C26.6663 21.0283 26.6663 23.5426 25.1042 25.1046C23.5422 26.6667 21.0279 26.6667 15.9997 26.6667C10.9714 26.6667 8.45721 26.6667 6.8951 25.1046C5.33301 23.5426 5.33301 21.0283 5.33301 16Z" stroke="#FF6900" stroke-width="1.5" stroke-linejoin="round"/>
<path d="M10.3093 21.6904C11.2856 22.6667 12.857 22.6667 15.9997 22.6667C17.0527 22.6667 17.9294 22.6667 18.6663 22.6299L22.6295 18.6667C22.6663 17.9298 22.6663 17.0531 22.6663 16C22.6663 12.8573 22.6663 11.286 21.6901 10.3097C20.7137 9.33337 19.1423 9.33337 15.9997 9.33337C12.857 9.33337 11.2856 9.33337 10.3093 10.3097C9.33301 11.286 9.33301 12.8573 9.33301 16C9.33301 19.1427 9.33301 20.714 10.3093 21.6904Z" stroke="#FF6900" stroke-width="1.5" stroke-linejoin="round"/>
<path d="M10.667 2.66663V5.33329M21.3337 2.66663V5.33329M16.0003 2.66663V5.33329M10.667 26.6666V29.3333M16.0003 26.6666V29.3333M21.3337 26.6666V29.3333M29.3337 21.3333H26.667M5.33366 10.6666H2.66699M5.33366 21.3333H2.66699M5.33366 16H2.66699M29.3337 10.6666H26.667M29.3337 16H26.667" stroke="#FF6900" stroke-width="1.5" stroke-linecap="round" stroke-linejoin="round"/>
</svg>
