<svg width="32" height="32" viewBox="0 0 32 32" fill="none" xmlns="http://www.w3.org/2000/svg">
<path d="M5.33301 15.9999C5.33301 10.9716 5.33301 8.45745 6.8951 6.89535C8.45721 5.33325 10.9714 5.33325 15.9997 5.33325C21.0279 5.33325 23.5422 5.33325 25.1042 6.89535C26.6663 8.45745 26.6663 10.9716 26.6663 15.9999C26.6663 21.0282 26.6663 23.5425 25.1042 25.1045C23.5422 26.6666 21.0279 26.6666 15.9997 26.6666C10.9714 26.6666 8.45721 26.6666 6.8951 25.1045C5.33301 23.5425 5.33301 21.0282 5.33301 15.9999Z" stroke="#FF6900" stroke-width="1.5" stroke-linejoin="round"/>
<path d="M12.667 2.66675V5.33341" stroke="#FF6900" stroke-width="1.5" stroke-linecap="round" stroke-linejoin="round"/>
<path d="M19.333 2.66675V5.33341" stroke="#FF6900" stroke-width="1.5" stroke-linecap="round" stroke-linejoin="round"/>
<path d="M12.667 26.6667V29.3334" stroke="#FF6900" stroke-width="1.5" stroke-linecap="round" stroke-linejoin="round"/>
<path d="M19.333 26.6667V29.3334" stroke="#FF6900" stroke-width="1.5" stroke-linecap="round" stroke-linejoin="round"/>
<path d="M17.3333 12L12 17.3333" stroke="#FF6900" stroke-width="1.5" stroke-linecap="round" stroke-linejoin="round"/>
<path d="M19.9997 17.3333L17.333 19.9999" stroke="#FF6900" stroke-width="1.5" stroke-linecap="round" stroke-linejoin="round"/>
<path d="M29.3337 19.3333H26.667" stroke="#FF6900" stroke-width="1.5" stroke-linecap="round" stroke-linejoin="round"/>
<path d="M5.33366 12.6667H2.66699" stroke="#FF6900" stroke-width="1.5" stroke-linecap="round" stroke-linejoin="round"/>
<path d="M5.33366 19.3333H2.66699" stroke="#FF6900" stroke-width="1.5" stroke-linecap="round" stroke-linejoin="round"/>
<path d="M29.3337 12.6667H26.667" stroke="#FF6900" stroke-width="1.5" stroke-linecap="round" stroke-linejoin="round"/>
</svg>
