<svg width="33" height="32" viewBox="0 0 33 32" fill="none" xmlns="http://www.w3.org/2000/svg">
<path d="M11.1665 18H21.8332M11.1665 11.3333H16.4998" stroke="#F94851" stroke-width="1.5" stroke-linecap="round" stroke-linejoin="round"/>
<path d="M8.63158 25.3333C6.8981 25.1628 5.5995 24.6421 4.7286 23.7712C3.1665 22.2092 3.1665 19.6949 3.1665 14.6666V14C3.1665 8.97166 3.1665 6.45751 4.7286 4.89541C6.2907 3.33331 8.80485 3.33331 13.8332 3.33331H19.1665C24.1948 3.33331 26.709 3.33331 28.271 4.89541C29.8332 6.45751 29.8332 8.97166 29.8332 14V14.6666C29.8332 19.6949 29.8332 22.2092 28.271 23.7712C26.709 25.3333 24.1948 25.3333 19.1665 25.3333C18.4192 25.35 17.824 25.4068 17.2393 25.54C15.6414 25.9078 14.1618 26.7254 12.6997 27.4385C10.6162 28.4544 9.5745 28.9624 8.92076 28.4868C7.67009 27.5553 8.89256 24.6692 9.1665 23.3333" stroke="#F94851" stroke-width="1.5" stroke-linecap="round"/>
</svg>
