<svg width="33" height="32" viewBox="0 0 33 32" fill="none" xmlns="http://www.w3.org/2000/svg">
<path d="M17.0863 0.893823L18.2154 3.14662L20.7375 3.50822C20.8578 3.52398 20.9712 3.57338 21.0647 3.65074C21.1582 3.7281 21.2279 3.83028 21.2658 3.94552C21.3038 4.06076 21.3084 4.18437 21.2792 4.30213C21.25 4.41989 21.1881 4.52701 21.1007 4.61116L19.2762 6.36529L19.7066 8.84209C19.7259 8.96212 19.7113 9.08515 19.6645 9.19737C19.6177 9.30958 19.5406 9.40653 19.4418 9.47733C19.343 9.54813 19.2263 9.58997 19.105 9.59816C18.9838 9.60635 18.8626 9.58056 18.7551 9.52369L16.4997 8.35462L14.2442 9.52422C14.1367 9.58109 14.0156 9.60688 13.8943 9.59869C13.773 9.5905 13.6564 9.54866 13.5575 9.47786C13.4587 9.40706 13.3816 9.31011 13.3348 9.1979C13.288 9.08569 13.2734 8.96266 13.2927 8.84262L13.7231 6.36582L11.8986 4.61169C11.8112 4.52754 11.7493 4.42042 11.7201 4.30266C11.6909 4.18491 11.6955 4.06129 11.7335 3.94606C11.7714 3.83082 11.8412 3.72864 11.9346 3.65127C12.0281 3.57391 12.1415 3.52451 12.2618 3.50876L14.7839 3.14662L15.913 0.893823C15.9686 0.786169 16.0527 0.695887 16.1562 0.632862C16.2597 0.569837 16.3785 0.536499 16.4997 0.536499C16.6208 0.536499 16.7396 0.569837 16.8431 0.632862C16.9466 0.695887 17.0307 0.786169 17.0863 0.893823Z" fill="#EDC33E"/>
<path d="M8.52705 4.99089L9.09131 6.18662L10.3521 6.37756C10.4143 6.389 10.4723 6.41725 10.5196 6.45926C10.5669 6.50127 10.6018 6.55542 10.6206 6.61586C10.6393 6.6763 10.6411 6.74071 10.6259 6.80212C10.6106 6.86353 10.5788 6.91959 10.534 6.96422L9.61985 7.88796L9.83318 9.19889C9.8457 9.26005 9.84068 9.3235 9.8187 9.38193C9.79672 9.44036 9.75867 9.49139 9.70894 9.52913C9.65921 9.56688 9.59983 9.5898 9.53764 9.59525C9.47545 9.6007 9.41298 9.58847 9.35745 9.55995L8.23318 8.94076L7.10518 9.55995C7.04964 9.58847 6.98718 9.6007 6.92499 9.59525C6.8628 9.5898 6.80341 9.56688 6.75368 9.52913C6.70396 9.49139 6.66591 9.44036 6.64393 9.38193C6.62194 9.3235 6.61692 9.26005 6.62945 9.19889L6.84278 7.88796L5.93025 6.95889C5.8854 6.91425 5.85362 6.85819 5.83836 6.79679C5.8231 6.73538 5.82493 6.67097 5.84367 6.61053C5.86241 6.55009 5.89733 6.49593 5.94465 6.45392C5.99197 6.41192 6.04988 6.38366 6.11211 6.37222L7.37291 6.18129L7.93718 4.98822C7.96187 4.93029 8.00312 4.88093 8.05574 4.84633C8.10836 4.81172 8.17002 4.79342 8.233 4.7937C8.29598 4.79399 8.35747 4.81285 8.40978 4.84793C8.46208 4.883 8.50288 4.93273 8.52705 4.99089Z" fill="#EDC33E"/>
<path d="M25.0602 4.99089L25.6245 6.18662L26.8853 6.37756C26.9475 6.389 27.0055 6.41725 27.0528 6.45926C27.1001 6.50127 27.135 6.55542 27.1538 6.61586C27.1725 6.6763 27.1743 6.74071 27.1591 6.80212C27.1438 6.86353 27.112 6.91959 27.0672 6.96422L26.153 7.88796L26.3664 9.19889C26.3789 9.26005 26.3739 9.3235 26.3519 9.38193C26.3299 9.44036 26.2919 9.49139 26.2421 9.52913C26.1924 9.56688 26.133 9.5898 26.0708 9.59525C26.0087 9.6007 25.9462 9.58847 25.8906 9.55995L24.7664 8.94076L23.6384 9.55995C23.5828 9.58847 23.5204 9.6007 23.4582 9.59525C23.396 9.5898 23.3366 9.56688 23.2869 9.52913C23.2372 9.49139 23.1991 9.44036 23.1771 9.38193C23.1551 9.3235 23.1501 9.26005 23.1626 9.19889L23.376 7.88796L22.4634 6.95889C22.4186 6.91425 22.3868 6.85819 22.3716 6.79679C22.3563 6.73538 22.3581 6.67097 22.3769 6.61053C22.3956 6.55009 22.4305 6.49593 22.4778 6.45392C22.5252 6.41192 22.5831 6.38366 22.6453 6.37222L23.9061 6.18129L24.4704 4.98822C24.4951 4.93029 24.5363 4.88093 24.5889 4.84633C24.6416 4.81172 24.7032 4.79342 24.7662 4.7937C24.8292 4.79399 24.8907 4.81285 24.943 4.84793C24.9953 4.883 25.0361 4.93273 25.0602 4.99089Z" fill="#EDC33E"/>
<path d="M14.687 27.7333H4.76699C4.34265 27.7333 3.93568 27.5647 3.63562 27.2646C3.33556 26.9646 3.16699 26.5576 3.16699 26.1333V13.3333C3.16699 12.9089 3.33556 12.502 3.63562 12.2019C3.93568 11.9018 4.34265 11.7333 4.76699 11.7333H28.2337C28.658 11.7333 29.065 11.9018 29.365 12.2019C29.6651 12.502 29.8337 12.9089 29.8337 13.3333V26.1333C29.8337 26.5576 29.6651 26.9646 29.365 27.2646C29.065 27.5647 28.658 27.7333 28.2337 27.7333H21.3003V30.5322C21.2998 30.7025 21.2528 30.8695 21.1643 31.0151C21.0759 31.1607 20.9494 31.2794 20.7985 31.3584C20.6476 31.4374 20.478 31.4737 20.308 31.4635C20.138 31.4532 19.974 31.3968 19.8337 31.3002L14.687 27.7333Z" fill="#F94851"/>
<path d="M26.633 15.4667H6.36634C6.22489 15.4667 6.08924 15.4105 5.98922 15.3105C5.8892 15.2105 5.83301 15.0748 5.83301 14.9334C5.83301 14.7919 5.8892 14.6563 5.98922 14.5562C6.08924 14.4562 6.22489 14.4 6.36634 14.4H26.633C26.7745 14.4 26.9101 14.4562 27.0101 14.5562C27.1102 14.6563 27.1663 14.7919 27.1663 14.9334C27.1663 15.0748 27.1102 15.2105 27.0101 15.3105C26.9101 15.4105 26.7745 15.4667 26.633 15.4667Z" fill="#C12F40"/>
<path d="M26.633 18.6666H6.36634C6.22489 18.6666 6.08924 18.6105 5.98922 18.5104C5.8892 18.4104 5.83301 18.2748 5.83301 18.1333C5.83301 17.9919 5.8892 17.8562 5.98922 17.7562C6.08924 17.6562 6.22489 17.6 6.36634 17.6H26.633C26.7745 17.6 26.9101 17.6562 27.0101 17.7562C27.1102 17.8562 27.1663 17.9919 27.1663 18.1333C27.1663 18.2748 27.1102 18.4104 27.0101 18.5104C26.9101 18.6105 26.7745 18.6666 26.633 18.6666Z" fill="#C12F40"/>
<path d="M26.633 21.8667H6.36634C6.22489 21.8667 6.08924 21.8105 5.98922 21.7105C5.8892 21.6105 5.83301 21.4748 5.83301 21.3334C5.83301 21.1919 5.8892 21.0563 5.98922 20.9563C6.08924 20.8562 6.22489 20.8 6.36634 20.8H26.633C26.7745 20.8 26.9101 20.8562 27.0101 20.9563C27.1102 21.0563 27.1663 21.1919 27.1663 21.3334C27.1663 21.4748 27.1102 21.6105 27.0101 21.7105C26.9101 21.8105 26.7745 21.8667 26.633 21.8667Z" fill="#C12F40"/>
<path d="M19.6997 25.0667H6.36634C6.22489 25.0667 6.08924 25.0105 5.98922 24.9105C5.8892 24.8104 5.83301 24.6748 5.83301 24.5333C5.83301 24.3919 5.8892 24.2562 5.98922 24.1562C6.08924 24.0562 6.22489 24 6.36634 24H19.6997C19.8411 24 19.9768 24.0562 20.0768 24.1562C20.1768 24.2562 20.233 24.3919 20.233 24.5333C20.233 24.6748 20.1768 24.8104 20.0768 24.9105C19.9768 25.0105 19.8411 25.0667 19.6997 25.0667Z" fill="#C12F40"/>
</svg>
