<svg width="32" height="32" viewBox="0 0 32 32" fill="none" xmlns="http://www.w3.org/2000/svg">
<path d="M24 16C24 11.5817 20.4183 8 16 8C11.5817 8 8 11.5817 8 16C8 20.4181 9.33333 23.3333 11.9998 26.6667" stroke="#2BC678" stroke-width="1.5" stroke-linecap="round" stroke-linejoin="round"/>
<path d="M20 28C12.6667 23.3333 12 18.2091 12 16C12 13.7908 13.7908 12 16 12C18.2092 12 20 13.7908 20 16C20 18.2092 21.7908 20 24 20C26.2092 20 28 18.2092 28 16C28 9.37256 22.6275 4 16 4C9.37256 4 4 9.37256 4 16C4 16.9165 4.10276 17.8091 4.29737 18.6667" stroke="#2BC678" stroke-width="1.5" stroke-linecap="round" stroke-linejoin="round"/>
<path d="M16 16C16.6667 22.6667 23.3333 25.3333 23.3333 25.3333" stroke="#2BC678" stroke-width="1.5" stroke-linecap="round" stroke-linejoin="round"/>
</svg>
