<svg width="32" height="32" viewBox="0 0 32 32" fill="none" xmlns="http://www.w3.org/2000/svg">
<path d="M16.0039 28C9.71686 28 6.5733 28 4.62015 26.0473C2.66699 24.0948 2.66699 20.952 2.66699 14.6667V10.5924C2.66699 8.1704 2.66699 6.95941 3.17422 6.05075C3.53579 5.40303 4.07039 4.86856 4.7183 4.50709C5.62722 4 6.83853 4 9.26115 4C10.8132 4 11.5893 4 12.2686 4.25468C13.8197 4.83616 14.4593 6.24477 15.1591 7.64417L16.0039 9.33333M10.6692 9.33333H22.339C25.1487 9.33333 26.5535 9.33333 27.5627 10.0075C27.9997 10.2993 28.3747 10.6743 28.6666 11.1111C29.1919 11.8971 29.3081 12.9233 29.3337 14.6667" stroke="#FF6900" stroke-width="1.5" stroke-linecap="round" stroke-linejoin="round"/>
<path d="M29.3333 24V22.3235C29.3333 21.506 29.3333 21.0974 29.1811 20.7298C29.0288 20.3622 28.7399 20.0732 28.1617 19.4951L27.1716 18.505C26.5935 17.9268 26.3045 17.6379 25.9369 17.4856C25.5693 17.3334 25.1607 17.3334 24.3432 17.3334C22.4575 17.3334 21.1716 17.3334 20.5857 17.9191C20 18.505 20 19.4478 20 21.3334V24C20 25.8856 20 26.8284 20.5857 27.4143C21.1716 28 22.1144 28 24 28H25.3333C27.2189 28 28.1617 28 28.7476 27.4143C29.3333 26.8284 29.3333 25.8856 29.3333 24Z" stroke="#FF6900" stroke-width="1.5" stroke-linecap="round" stroke-linejoin="round"/>
</svg>
