<svg width="35" height="40" viewBox="0 0 35 40" fill="none" xmlns="http://www.w3.org/2000/svg">
<path d="M17.1875 0C7.68781 0 0 7.68781 0 17.1875V25.9375C0 28.5222 2.10281 30.625 4.6875 30.625C7.27219 30.625 9.375 28.5222 9.375 25.9375V20.3125C9.375 17.7278 7.27219 15.625 4.6875 15.625C4.16273 15.625 3.65844 15.713 3.18695 15.8727C3.85211 8.73289 9.8768 3.125 17.1875 3.125C24.4982 3.125 30.5229 8.73289 31.188 15.8727C30.7166 15.713 30.2123 15.625 29.6875 15.625C27.1028 15.625 25 17.7278 25 20.3125V25.9375C25 28.5222 27.1028 30.625 29.6875 30.625C30.1605 30.625 30.6172 30.5539 31.048 30.423C30.4635 32.3462 28.6741 33.75 26.5625 33.75H21.6063C20.9613 31.9314 19.2245 30.625 17.1875 30.625C14.6028 30.625 12.5 32.7278 12.5 35.3125C12.5 37.8972 14.6028 40 17.1875 40C19.2245 40 20.9612 38.6936 21.6063 36.875H26.5625C30.8703 36.875 34.375 33.3703 34.375 29.0625V17.1875C34.375 7.68781 26.6872 0 17.1875 0ZM4.6875 18.75C5.54906 18.75 6.25 19.4509 6.25 20.3125V25.9375C6.25 26.7991 5.54906 27.5 4.6875 27.5C3.82594 27.5 3.125 26.7991 3.125 25.9375V20.3125C3.125 19.4509 3.82594 18.75 4.6875 18.75ZM17.1875 36.875C16.3259 36.875 15.625 36.1741 15.625 35.3125C15.625 34.4509 16.3259 33.75 17.1875 33.75C18.0491 33.75 18.75 34.4509 18.75 35.3125C18.75 36.1741 18.0491 36.875 17.1875 36.875ZM29.6875 27.5C28.8259 27.5 28.125 26.7991 28.125 25.9375V20.3125C28.125 19.4509 28.8259 18.75 29.6875 18.75C30.5491 18.75 31.25 19.4509 31.25 20.3125V25.9375C31.25 26.7991 30.5491 27.5 29.6875 27.5Z" fill="white"/>
</svg>
