<svg width="32" height="32" viewBox="0 0 32 32" fill="none" xmlns="http://www.w3.org/2000/svg">
<path d="M27.7974 4.61769C27.5131 4.93488 27.1007 5.13494 26.6423 5.13494C25.787 5.13494 25.0911 4.43907 25.0911 3.58375C25.0911 3.23088 25.2098 2.90532 25.409 2.64444C23.2914 1.26856 20.765 0.46875 18.0516 0.46875C11.5079 0.46875 6.05002 5.11682 4.79883 11.2914C5.10252 11.3685 5.38102 11.5259 5.60833 11.7533L8.08608 14.231C8.41896 14.5638 8.60227 15.0065 8.60227 15.4773C8.60227 15.948 8.41896 16.3906 8.08608 16.7235L6.36052 18.4491C5.9092 18.9004 5.9092 19.6348 6.36052 20.086L11.9354 25.6609C12.154 25.8795 12.4447 26 12.7539 26C13.0631 26 13.3538 25.8795 13.5724 25.6609L15.298 23.9353C15.6308 23.6025 16.0735 23.4191 16.5442 23.4191C17.015 23.4191 17.4577 23.6025 17.7905 23.9353L20.2683 26.4131C20.5065 26.6513 20.662 26.9414 20.735 27.2473C26.9179 26.0025 31.5743 20.5409 31.5743 13.9913C31.5742 10.3518 30.136 7.04851 27.7974 4.61769Z" fill="#FFF3DE"/>
<path d="M31.9785 12.638C31.673 9.45692 30.2889 6.49542 28.0591 4.2146C27.9279 4.50797 27.7086 4.75348 27.4346 4.91691C29.4881 7.03854 30.7624 9.78242 31.0453 12.7277C31.07 12.9854 31.2987 13.1743 31.5567 13.1495C31.8144 13.1247 32.0032 12.8957 31.9785 12.638Z" fill="#FFE177"/>
<path d="M25.7559 2.31157C23.4836 0.810189 20.8145 0 18.0512 0C14.314 0 10.8005 1.45538 8.15786 4.098C6.17654 6.07932 4.86266 8.55013 4.3291 11.2378C4.33998 11.2376 4.35079 11.237 4.36173 11.237C4.67591 11.237 4.97735 11.3191 5.24223 11.4723C6.41935 5.47576 11.7149 0.937501 18.0512 0.937501C20.6064 0.937501 23.0756 1.6795 25.1832 3.05632C25.2933 2.75288 25.4956 2.49344 25.7559 2.31157Z" fill="#FFE177"/>
<path d="M18.0519 3.8252C12.4373 3.8252 7.88574 8.37676 7.88574 13.9914C7.88574 14.0049 7.88618 14.0183 7.88624 14.0318L8.08537 14.231C8.41824 14.5638 8.60156 15.0065 8.60156 15.4773C8.60156 15.8813 8.46618 16.2644 8.21743 16.5753C9.14118 20.1005 11.9099 22.8783 15.4298 23.8154C15.7434 23.5587 16.1327 23.4191 16.5434 23.4191C17.0143 23.4191 17.4569 23.6025 17.7898 23.9353L18.0114 24.157C18.0249 24.1571 18.0384 24.1575 18.0519 24.1575C23.6665 24.1575 28.2181 19.606 28.2181 13.9913C28.2181 8.37676 23.6666 3.8252 18.0519 3.8252Z" fill="#FFE177"/>
<path d="M18.0528 3.8252C17.5027 3.8252 16.963 3.86951 16.4365 3.95363C21.2829 4.72801 24.9863 8.92689 24.9863 13.9914C24.9863 18.6415 21.864 22.5615 17.6016 23.7713C17.6678 23.8212 17.7311 23.8758 17.7908 23.9354L18.0125 24.1572C18.026 24.1572 18.0394 24.1575 18.0528 24.1575C23.6675 24.1575 28.219 19.606 28.219 13.9913C28.219 8.37676 23.6675 3.8252 18.0528 3.8252Z" fill="#FFD15B"/>
<path d="M21.7537 14.9198V11.1591C21.7537 10.9549 21.6215 10.7742 21.4269 10.7124C21.232 10.6507 21.0199 10.722 20.9021 10.8888L17.915 15.1181C17.8139 15.2612 17.8011 15.4486 17.8816 15.6041C17.9622 15.7596 18.1227 15.8573 18.2979 15.8573H20.8162V16.8235C20.8162 17.0823 21.0261 17.2922 21.285 17.2922C21.5439 17.2922 21.7537 17.0823 21.7537 16.8235V15.8573C22.0124 15.857 22.2219 15.6472 22.2219 15.3885C22.2219 15.1298 22.0123 14.9201 21.7537 14.9198ZM20.8162 14.9198H19.2028L20.8162 12.6354V14.9198Z" fill="#F6AB31"/>
<path d="M17.8075 16.8236C17.8075 16.5647 17.5976 16.3548 17.3387 16.3548H15.4507L17.2765 14.4512C17.6189 14.0942 17.8075 13.6282 17.8075 13.1388V12.609C17.8075 11.5511 16.9272 10.6904 15.8452 10.6904C14.7631 10.6904 13.8828 11.5511 13.8828 12.609V12.8224C13.8828 13.0813 14.0927 13.2912 14.3516 13.2912C14.6105 13.2912 14.8203 13.0813 14.8203 12.8224V12.609C14.8203 12.0681 15.28 11.6279 15.8452 11.6279C16.4102 11.6279 16.87 12.0681 16.87 12.609V13.1388C16.87 13.3851 16.7741 13.6207 16.6 13.8022L14.0133 16.4991C13.8833 16.6346 13.8467 16.8347 13.9204 17.0074C13.9941 17.1802 14.1638 17.2923 14.3516 17.2923H17.3387C17.5976 17.2923 17.8075 17.0824 17.8075 16.8236Z" fill="#F6AB31"/>
<path d="M18.0518 7.04571C18.3106 7.04571 18.5205 6.83583 18.5205 6.57696V5.93677C18.5205 5.67789 18.3106 5.46802 18.0518 5.46802C17.7929 5.46802 17.583 5.67789 17.583 5.93677V6.57702C17.583 6.83583 17.7929 7.04571 18.0518 7.04571Z" fill="#F6AB31"/>
<path d="M18.0518 20.8955C17.7929 20.8955 17.583 21.1054 17.583 21.3643V22.0458C17.583 22.3046 17.7929 22.5145 18.0518 22.5145C18.3106 22.5145 18.5205 22.3046 18.5205 22.0458V21.3643C18.5205 21.1054 18.3106 20.8955 18.0518 20.8955Z" fill="#F6AB31"/>
<path d="M10.6383 13.5227H9.99805C9.73917 13.5227 9.5293 13.7326 9.5293 13.9915C9.5293 14.2503 9.73917 14.4602 9.99805 14.4602H10.6383C10.8972 14.4602 11.107 14.2503 11.107 13.9915C11.107 13.7326 10.8972 13.5227 10.6383 13.5227Z" fill="#F6AB31"/>
<path d="M26.1063 13.5227H25.4248C25.1659 13.5227 24.9561 13.7326 24.9561 13.9915C24.9561 14.2503 25.1659 14.4602 25.4248 14.4602H26.1063C26.3652 14.4602 26.5751 14.2503 26.5751 13.9915C26.5751 13.7326 26.3652 13.5227 26.1063 13.5227Z" fill="#F6AB31"/>
<path d="M12.6879 7.96445C12.5048 7.78138 12.208 7.78138 12.025 7.96445C11.8419 8.14751 11.8419 8.44432 12.025 8.62732L12.4777 9.08001C12.5692 9.17151 12.6892 9.21732 12.8091 9.21732C12.9291 9.21732 13.0491 9.17157 13.1406 9.08001C13.3236 8.89695 13.3236 8.60013 13.1406 8.41713L12.6879 7.96445Z" fill="#F6AB31"/>
<path d="M23.5971 18.8732C23.414 18.6902 23.1172 18.6902 22.9342 18.8732C22.7511 19.0563 22.7511 19.3531 22.9342 19.5362L23.4161 20.0181C23.5076 20.1096 23.6276 20.1554 23.7475 20.1554C23.8675 20.1554 23.9875 20.1097 24.079 20.0182C24.262 19.8351 24.262 19.5383 24.079 19.3552L23.5971 18.8732Z" fill="#F6AB31"/>
<path d="M12.4777 18.9026L12.025 19.3553C11.8419 19.5384 11.842 19.8352 12.025 20.0183C12.1165 20.1098 12.2365 20.1555 12.3564 20.1555C12.4763 20.1555 12.5963 20.1098 12.6879 20.0182L13.1406 19.5654C13.3237 19.3824 13.3236 19.0856 13.1406 18.9025C12.9575 18.7195 12.6608 18.7195 12.4777 18.9026Z" fill="#F6AB31"/>
<path d="M23.416 7.96445L22.9342 8.44632C22.7511 8.62938 22.7511 8.9262 22.9342 9.1092C23.0257 9.2007 23.1457 9.24651 23.2656 9.24651C23.3855 9.24651 23.5055 9.20076 23.597 9.1092L24.0789 8.62732C24.262 8.44426 24.262 8.14745 24.0789 7.96445C23.8959 7.78138 23.5991 7.78138 23.416 7.96445Z" fill="#F6AB31"/>
<path d="M30.4608 19.8385C30.3985 19.8385 30.3352 19.826 30.2744 19.7996C30.0369 19.6965 29.928 19.4205 30.0311 19.183C30.5413 18.0072 30.8738 16.7633 31.0194 15.4859C31.0487 15.2287 31.2809 15.0435 31.5382 15.0732C31.7954 15.1025 31.9802 15.3348 31.9509 15.592C31.7948 16.9616 31.4382 18.2953 30.8911 19.5561C30.8144 19.7329 30.6419 19.8385 30.4608 19.8385Z" fill="#FFE177"/>
<path d="M26.1098 25.3207C25.9665 25.3207 25.8252 25.2553 25.7332 25.1315C25.5787 24.9237 25.622 24.6301 25.8299 24.4757C26.8602 23.71 27.7709 22.7994 28.5366 21.7689C28.691 21.5611 28.9847 21.5179 29.1924 21.6722C29.4002 21.8267 29.4435 22.1202 29.2891 22.328C28.4687 23.4321 27.493 24.4078 26.389 25.2281C26.305 25.2905 26.207 25.3207 26.1098 25.3207Z" fill="#FFE177"/>
<path d="M23.8593 26.2146C23.7563 25.9771 23.4803 25.8681 23.2427 25.9713C22.381 26.3452 21.4827 26.6233 20.5615 26.8026C20.7182 27.0846 20.7918 27.4006 20.782 27.7146C21.7553 27.522 22.7047 27.2266 23.616 26.8312C23.8535 26.7281 23.9624 26.4521 23.8593 26.2146Z" fill="#FFE177"/>
<path d="M20.3114 26.3689L17.8338 23.8912C17.1211 23.1785 15.9655 23.1785 15.2528 23.8912L13.5273 25.6168C13.0996 26.0444 12.4063 26.0444 11.9787 25.6168L6.4038 20.0419C5.97618 19.6143 5.97618 18.921 6.4038 18.4933L8.12937 16.7678C8.84206 16.0551 8.84206 14.8995 8.12937 14.1868L5.65162 11.7091C4.93893 10.9964 3.78336 10.9964 3.07068 11.7091L1.6613 13.0979C-0.553766 15.313 -0.553766 18.9043 1.6613 21.1195L10.8805 30.3387C13.0956 32.5538 16.687 32.5538 18.9021 30.3387L20.3114 28.9498C21.0241 28.2372 21.0241 27.0816 20.3114 26.3689Z" fill="#FE646F"/>
<path d="M8.12899 14.1868L5.6513 11.7091C4.93861 10.9964 3.78305 10.9964 3.07036 11.7091L2.68555 12.0939L7.74424 17.1526L8.12905 16.7679C8.84168 16.0551 8.84168 14.8996 8.12899 14.1868Z" fill="#FD4755"/>
<path d="M20.3116 26.369L17.8339 23.8913C17.1212 23.1786 15.9657 23.1786 15.253 23.8913L14.8682 24.2761L19.9269 29.3348L20.3117 28.95C21.0243 28.2373 21.0243 27.0817 20.3116 26.369Z" fill="#FD4755"/>
<path d="M26.641 5.19735C27.5322 5.19735 28.2547 4.47488 28.2547 3.58366C28.2547 2.69244 27.5322 1.96997 26.641 1.96997C25.7498 1.96997 25.0273 2.69244 25.0273 3.58366C25.0273 4.47488 25.7498 5.19735 26.641 5.19735Z" fill="#6CF5C2"/>
<path d="M26.6414 1.96997C26.4035 1.96997 26.1779 2.02185 25.9746 2.11428C26.533 2.3681 26.9215 2.93035 26.9215 3.58366C26.9215 4.23697 26.533 4.79922 25.9746 5.05304C26.1779 5.14547 26.4035 5.19735 26.6414 5.19735C27.5326 5.19735 28.2551 4.47485 28.2551 3.58366C28.2551 2.69247 27.5327 1.96997 26.6414 1.96997Z" fill="#00F2A6"/>
</svg>
