<svg width="32" height="32" viewBox="0 0 32 32" fill="none" xmlns="http://www.w3.org/2000/svg">
<path d="M3.13502 17.618C2.66433 14.555 2.42898 13.0235 3.00806 11.6659C3.58713 10.3082 4.87188 9.37926 7.44136 7.52143L9.36116 6.13335C12.5576 3.82225 14.1557 2.66669 15.9998 2.66669C17.844 2.66669 19.4421 3.82225 22.6385 6.13335L24.5584 7.52143C27.1278 9.37926 28.4125 10.3082 28.9916 11.6659C29.5706 13.0235 29.3353 14.555 28.8646 17.618L28.4633 20.2299C27.796 24.5719 27.4624 26.743 25.9052 28.0382C24.348 29.3334 22.0714 29.3334 17.5182 29.3334H14.4814C9.92828 29.3334 7.65172 29.3334 6.0945 28.0382C4.53729 26.743 4.20366 24.5719 3.53641 20.2299L3.13502 17.618Z" stroke="#FCA62F" stroke-width="1.5" stroke-linejoin="round"/>
<path d="M15 17.6667C16.5824 19.2491 18.6667 20.8572 18.6667 20.8572L21.5239 18C21.5239 18 19.9157 15.9158 18.3333 14.3334C16.7509 12.7509 14.6667 11.1429 14.6667 11.1429L11.8095 14C11.8095 14 13.4176 16.0843 15 17.6667ZM15 17.6667L10 22.6667M22 17.5239L18.1905 21.3334M15.1428 10.6667L11.3333 14.4762" stroke="#FCA62F" stroke-width="1.5" stroke-linecap="round" stroke-linejoin="round"/>
</svg>
