<svg width="32" height="32" viewBox="0 0 32 32" fill="none" xmlns="http://www.w3.org/2000/svg">
<g clip-path="url(#clip0_61_557)">
<path d="M9.54784 25.7714C9.54784 28.2567 10.728 29.4517 10.728 29.4517H8.16671C7.9594 29.4517 7.76427 29.3532 7.64452 29.1845C7.3039 28.7061 6.67871 27.5806 6.67871 25.7714C6.67871 23.9615 7.3039 22.836 7.64452 22.3576C7.76427 22.189 7.9594 22.0905 8.16671 22.0905H10.728C10.728 22.0905 9.54784 23.2855 9.54784 25.7714Z" fill="#FB3A82"/>
<path d="M10.728 22.0905C10.728 22.0905 9.58121 23.2513 9.5484 25.6658L7.14552 28.2683C6.89634 27.6689 6.67871 26.8396 6.67871 25.7715C6.67871 23.9616 7.3039 22.8361 7.64452 22.3577C7.76427 22.189 7.9594 22.0905 8.16671 22.0905H10.728V22.0905Z" fill="#FB1466"/>
<path d="M29.2757 25.7711C29.2757 27.2025 29.7875 28.5011 30.6175 29.4518H10.0846C10.0846 29.4518 8.9043 28.2568 8.9043 25.7711C8.9043 23.2854 10.0846 22.0903 10.0846 22.0903H30.6175C29.7875 23.041 29.2757 24.3396 29.2757 25.7711Z" fill="#E0D3CE"/>
<path d="M12.8492 22.0905L8.92555 26.3406C8.91205 26.159 8.9043 25.9691 8.9043 25.7714C8.9043 23.2855 10.0845 22.0905 10.0845 22.0905H12.8492Z" fill="#CDBFBB"/>
<path d="M29.2758 25.7714C29.2758 27.2029 29.7876 28.5011 30.6176 29.4519H28.1846C27.3546 28.5011 26.8428 27.2029 26.8428 25.7714C26.8428 24.3398 27.3546 23.0407 28.1846 22.0908H30.6176C29.7876 23.0407 29.2758 24.3398 29.2758 25.7714Z" fill="#CDBFBB"/>
<path d="M31.9993 21.4034C31.9993 21.6983 31.8795 21.9655 31.6863 22.1587C31.4932 22.3518 31.226 22.4716 30.9311 22.4716H10.5174C9.92766 22.4716 9.44922 21.9932 9.44922 21.4034C9.44922 21.1085 9.56897 20.8407 9.76216 20.6475C9.95534 20.4543 10.2225 20.3346 10.5174 20.3346H30.9311C31.5209 20.3346 31.9993 20.813 31.9993 21.4034Z" fill="#FB3A82"/>
<path d="M14.4695 20.3346L12.4973 22.4716H10.5174C9.92766 22.4716 9.44922 21.9932 9.44922 21.4034C9.44922 21.1085 9.56897 20.8407 9.76216 20.6475C9.95534 20.4543 10.2225 20.3346 10.5174 20.3346H14.4695Z" fill="#FB1466"/>
<path d="M31.9996 21.403C31.9996 21.698 31.8796 21.9655 31.6868 22.1583C31.4931 22.352 31.2256 22.472 30.9306 22.472H28.8584C29.1534 22.472 29.4209 22.352 29.6137 22.1583C29.8065 21.9655 29.9265 21.698 29.9265 21.403C29.9265 20.8129 29.4485 20.3348 28.8584 20.3348H30.9306C31.5207 20.3348 31.9996 20.8129 31.9996 21.403Z" fill="#FB1466"/>
<path d="M30.9312 31.2073H10.5177C9.92759 31.2073 9.44922 30.7289 9.44922 30.1389C9.44922 29.5488 9.92759 29.0704 10.5177 29.0704H30.9313C31.5213 29.0704 31.9997 29.5488 31.9997 30.1389C31.9997 30.7289 31.5213 31.2073 30.9312 31.2073Z" fill="#FB3A82"/>
<path d="M31.9996 30.1389C31.9996 30.4339 31.8796 30.7014 31.6868 30.8942C31.4931 31.087 31.2256 31.207 30.9306 31.207H28.8584C29.1534 31.207 29.4209 31.087 29.6137 30.8942C29.8065 30.7014 29.9265 30.4339 29.9265 30.1389C29.9265 29.5489 29.4485 29.0708 28.8584 29.0708H30.9306C31.5207 29.0708 31.9996 29.5489 31.9996 30.1389Z" fill="#FB1466"/>
<path d="M19.1491 24.6665C19.1491 24.9331 18.9334 25.1494 18.6662 25.1494H8.92969C8.95869 24.7959 9.01212 24.474 9.07969 24.1836H18.6662C18.9334 24.1837 19.1491 24.4 19.1491 24.6665Z" fill="#CDBFBB"/>
<path d="M29.4937 24.1837C29.4055 24.494 29.3424 24.8173 29.3077 25.1495H22.645C22.3784 25.1495 22.1621 24.9332 22.1621 24.6667C22.1621 24.4001 22.3785 24.1838 22.645 24.1838H29.4937V24.1837Z" fill="#CDBFBB"/>
<path d="M24.2768 27.3431H13.0268C12.7601 27.3431 12.5439 27.1269 12.5439 26.8602C12.5439 26.5935 12.7601 26.3773 13.0268 26.3773H24.2768C24.5436 26.3773 24.7597 26.5935 24.7597 26.8602C24.7597 27.1269 24.5435 27.3431 24.2768 27.3431Z" fill="#CDBFBB"/>
<path d="M14.0647 18.8749L12.3398 17.15L0.598139 27.9893C-0.177799 28.7056 -0.202111 29.9235 0.544576 30.6702C1.29126 31.4169 2.5092 31.3926 3.22551 30.6166L14.0647 18.8749Z" fill="#873F30"/>
<path d="M3.17405 30.6709C2.45211 31.3928 1.27386 31.3989 0.545234 30.6703C0.329672 30.4547 0.178672 30.2001 0.0917969 29.9294C0.735797 30.1389 1.47055 29.9857 1.97861 29.4776C1.99642 29.4598 2.01423 29.4409 2.03155 29.4225L12.871 17.6805L14.0654 18.8749L3.22586 30.6168C3.20855 30.6352 3.1913 30.6535 3.17405 30.6709Z" fill="#6C3328"/>
<path d="M15.7628 13.0631L11.791 17.8009L13.4135 19.4234L18.1513 15.4516L15.7628 13.0631Z" fill="#873F30"/>
<path d="M15.7634 13.0631L14.4799 14.594L14.865 14.9792C15.1485 15.2626 15.1485 15.7222 14.865 16.0056L12.4307 18.44L13.414 19.4234L18.1518 15.4515L15.7634 13.0631Z" fill="#6C3328"/>
<path d="M12.394 20.3964L10.819 18.8214C10.3637 18.366 10.3637 17.6278 10.819 17.1724C11.2743 16.7171 12.0126 16.7171 12.468 17.1724L14.043 18.7474C14.4983 19.2027 14.4983 19.941 14.043 20.3964C13.5876 20.8517 12.8494 20.8517 12.394 20.3964Z" fill="#BA5D4F"/>
<path d="M14.0429 20.3963C13.8151 20.6242 13.5165 20.7378 13.219 20.7378C12.9204 20.7378 12.6218 20.6242 12.394 20.3963L11.2002 19.2025C11.428 19.4303 11.7266 19.544 12.0246 19.5435C12.3227 19.544 12.6213 19.4304 12.8491 19.2025C13.3048 18.7468 13.3043 18.0087 12.8491 17.5536L14.0429 18.7474C14.4986 19.2031 14.4986 19.9407 14.0429 20.3963Z" fill="#A34F41"/>
<path d="M17.8213 2.23462L21.3184 5.73175L15.828 11.2221L12.3309 7.725L17.8213 2.23462Z" fill="#BA5D4F"/>
<path d="M23.4883 18.8871L19.9912 15.39L25.4815 9.89957L28.9787 13.3967L23.4883 18.8871Z" fill="#A34F41"/>
<path d="M11.3469 8.93012L11.2254 8.80862C10.7647 8.34799 10.7647 7.60112 11.2254 7.14043L17.2349 1.13087C17.6955 0.670244 18.4424 0.670244 18.9031 1.13087L19.0246 1.25237C19.4852 1.71299 19.4852 2.45987 19.0246 2.92056L13.015 8.93012C12.5544 9.39074 11.8075 9.39074 11.3469 8.93012Z" fill="#873F30"/>
<path d="M22.2849 19.8678L22.4064 19.9893C22.867 20.4499 23.6139 20.4499 24.0746 19.9893L30.0842 13.9798C30.5448 13.5191 30.5448 12.7723 30.0842 12.3116L29.9627 12.1901C29.502 11.7294 28.7552 11.7294 28.2945 12.1901L22.2849 18.1996C21.8243 18.6603 21.8243 19.4071 22.2849 19.8678Z" fill="#6C3328"/>
<path d="M22.8359 4.44714L26.7632 8.3744L18.4711 16.6665L14.5438 12.7392L22.8359 4.44714Z" fill="#FCC16D"/>
<path d="M16.4805 14.6833L24.7726 6.39126L26.7603 8.37899L18.4682 16.6711L16.4805 14.6833Z" fill="#FCA62F"/>
<path d="M22.855 4.28183L21.8928 3.88846C21.563 3.75358 21.1844 3.82983 20.9324 4.08177L14.1761 10.8381C13.9241 11.0901 13.848 11.4686 13.9828 11.7985L14.3762 12.7606C14.5357 13.1508 15.0411 13.2525 15.3392 12.9545L23.0488 5.24477C23.3468 4.94671 23.2451 4.44133 22.855 4.28183Z" fill="#873F30"/>
<path d="M26.9325 8.35968L27.3259 9.32186C27.4607 9.65168 27.3845 10.0302 27.1325 10.2822L20.3762 17.0385C20.1242 17.2905 19.7457 17.3667 19.4159 17.2318L18.4537 16.8384C18.0635 16.6789 17.9618 16.1735 18.2598 15.8754L25.9694 8.1658C26.2676 7.8678 26.773 7.96955 26.9325 8.35968Z" fill="#6C3328"/>
</g>
<defs>
<clipPath id="clip0_61_557">
<rect width="32" height="32" fill="white"/>
</clipPath>
</defs>
</svg>
