<svg width="24" height="24" viewBox="0 0 24 24" fill="none" xmlns="http://www.w3.org/2000/svg">
<path d="M9.91287 7.30426H22.4346C23.299 7.30426 23.9998 6.60346 23.9998 5.73905C23.9998 4.87463 23.299 4.17383 22.4346 4.17383H9.91287C9.04846 4.17383 8.34766 4.87463 8.34766 5.73905C8.34766 6.60346 9.04846 7.30426 9.91287 7.30426Z" fill="black"/>
<path d="M22.4346 10.4348H9.91287C9.04846 10.4348 8.34766 11.1356 8.34766 12C8.34766 12.8644 9.04846 13.5652 9.91287 13.5652H22.4346C23.299 13.5652 23.9998 12.8644 23.9998 12C23.9998 11.1356 23.299 10.4348 22.4346 10.4348Z" fill="black"/>
<path d="M22.4346 16.6956H9.91287C9.04846 16.6956 8.34766 17.3964 8.34766 18.2608C8.34766 19.1252 9.04846 19.826 9.91287 19.826H22.4346C23.299 19.826 23.9998 19.1252 23.9998 18.2608C23.9998 17.3964 23.299 16.6956 22.4346 16.6956Z" fill="black"/>
<path d="M1.56522 16.6956C1.15304 16.6956 0.750157 16.8625 0.458087 17.1536C0.166957 17.4458 0 17.8486 0 18.2608C0 18.6729 0.166957 19.0757 0.458087 19.3679C0.750157 19.659 1.15304 19.826 1.56522 19.826C1.97739 19.826 2.38017 19.659 2.67224 19.3679C2.96337 19.0757 3.13043 18.6729 3.13043 18.2608C3.13043 17.8486 2.96337 17.4458 2.67224 17.1536C2.38017 16.8625 1.97739 16.6956 1.56522 16.6956Z" fill="black"/>
<path d="M1.56522 10.4348C1.15304 10.4348 0.750157 10.6018 0.458087 10.8929C0.166957 11.1851 0 11.5879 0 12C0 12.4122 0.166957 12.815 0.458087 13.1072C0.750157 13.3983 1.15304 13.5652 1.56522 13.5652C1.97739 13.5652 2.38017 13.3983 2.67224 13.1072C2.96337 12.815 3.13043 12.4122 3.13043 12C3.13043 11.5879 2.96337 11.1851 2.67224 10.8929C2.38017 10.6018 1.97739 10.4348 1.56522 10.4348Z" fill="black"/>
<path d="M1.56522 4.17383C1.15304 4.17383 0.750157 4.34078 0.458087 4.63192C0.166957 4.92409 0 5.32687 0 5.73905C0 6.15122 0.166957 6.554 0.458087 6.84618C0.750157 7.13731 1.15304 7.30426 1.56522 7.30426C1.97739 7.30426 2.38017 7.13731 2.67224 6.84618C2.96337 6.554 3.13043 6.15122 3.13043 5.73905C3.13043 5.32687 2.96337 4.92409 2.67224 4.63192C2.38017 4.34078 1.97739 4.17383 1.56522 4.17383Z" fill="black"/>
</svg>
