<svg width="25" height="24" viewBox="0 0 25 24" fill="none" xmlns="http://www.w3.org/2000/svg">
<path d="M18.875 23.9982H6.125C3.02338 23.9982 0.5 21.4749 0.5 18.3732V10.4855C0.5 8.7422 1.32758 7.07021 2.71372 6.01295L9.08872 1.15065C11.0973 -0.381271 13.9027 -0.381271 15.9113 1.15065L17.9375 2.69471V1.49823C17.987 0.254353 19.7634 0.255291 19.8125 1.49823V4.58781C19.8125 4.9442 19.6104 5.26974 19.291 5.42795C18.9716 5.5861 18.5902 5.54945 18.3067 5.33349L14.7745 2.64179C13.4352 1.62029 11.5647 1.62029 10.2258 2.64156L3.85077 7.50385C2.92672 8.20862 2.375 9.32326 2.375 10.4855V18.3732C2.375 20.441 4.05725 22.1232 6.125 22.1232H18.875C20.9427 22.1232 22.625 20.441 22.625 18.3732V10.4855C22.625 9.30901 22.0795 8.19057 21.1658 7.49364C20.7541 7.17962 20.675 6.59134 20.989 6.17968C21.303 5.76798 21.8913 5.68881 22.3029 6.00282C23.6787 7.05207 24.5 8.72785 24.5 10.4855V18.3732C24.5 21.4749 21.9766 23.9982 18.875 23.9982ZM10.625 10.8264C9.9778 10.8264 9.45312 11.351 9.45312 11.9982C9.51505 13.5531 11.7355 13.5519 11.7969 11.9982C11.7969 11.351 11.2722 10.8264 10.625 10.8264ZM15.5469 11.9982C15.485 13.553 13.2645 13.5519 13.2031 11.9982C13.265 10.4433 15.4855 10.4446 15.5469 11.9982ZM11.7969 15.7482C11.735 17.303 9.51448 17.3019 9.45312 15.7482C9.51505 14.1933 11.7355 14.1946 11.7969 15.7482ZM15.5469 15.7482C15.485 17.303 13.2645 17.3019 13.2031 15.7482C13.265 14.1933 15.4855 14.1946 15.5469 15.7482Z" fill="#FF002B"/>
</svg>
