<svg width="33" height="32" viewBox="0 0 33 32" fill="none" xmlns="http://www.w3.org/2000/svg">
<path d="M3.09961 10.2043V11.7203C3.09961 12.189 3.47955 12.5689 3.94823 12.5689H29.0526C29.5213 12.5689 29.9012 12.189 29.9012 11.7203V10.2043C29.9012 9.73565 29.5213 9.35571 29.0526 9.35571H3.94823C3.47955 9.35571 3.09961 9.73565 3.09961 10.2043Z" fill="#3872B7"/>
<path d="M15.4814 9.47984C15.45 9.43859 15.4205 9.39715 15.392 9.35571H11.4048L10.8797 9.88753C10.6892 10.0804 10.6512 10.3767 10.7867 10.6113L11.6083 12.0343C11.7438 12.269 12.0194 12.3843 12.2817 12.3158L13.9798 11.8723C14.3222 12.1366 14.7003 12.3568 15.106 12.5239L15.1183 12.5688H18.8267L18.839 12.5239C19.2448 12.3567 19.6228 12.1366 19.9653 11.8723L21.6634 12.3158C21.9256 12.3843 22.2013 12.2691 22.3368 12.0343L23.1583 10.6113C23.2938 10.3767 23.2558 10.0803 23.0654 9.88753L22.5403 9.35571H18.4806C17.8113 10.0934 16.6084 10.3381 15.4814 9.47984Z" fill="#254E87"/>
<path d="M29.053 9.35571H27.2461C27.7148 9.35571 28.0947 9.73565 28.0947 10.2043V11.7203C28.0947 12.1889 27.7148 12.5688 27.2461 12.5688H29.053C29.5217 12.5688 29.9016 12.1889 29.9016 11.7203V10.2043C29.9016 9.73565 29.5217 9.35571 29.053 9.35571Z" fill="#254E87"/>
<path d="M27.7082 12.5688H5.29297V29.9721H27.7082V12.5688Z" fill="#EBEEF2"/>
<path d="M27.7081 12.5688H26.1582V29.9721H27.7081V12.5688Z" fill="#C9CDD3"/>
<path d="M27.7082 12.5688H5.29297V14.657H27.7082V12.5688Z" fill="#C9CDD3"/>
<path d="M20.8515 20.6681H12.1494V29.9722H20.8515V20.6681Z" fill="#7CCCF2"/>
<path d="M20.8515 20.6681H12.1494V22.1811H20.8515V20.6681Z" fill="#4FACDB"/>
<path d="M16.9834 20.6681H16.0176V29.9722H16.9834V20.6681Z" fill="#4FACDB"/>
<path d="M16.9834 20.6681H16.0176V22.1811H16.9834V20.6681Z" fill="#2B93BC"/>
<path d="M21.4047 6.66844C21.4047 6.44794 21.3887 6.23125 21.3605 6.01844L22.5936 4.76956C22.7841 4.57675 22.8221 4.28044 22.6866 4.04569L21.865 2.62269C21.7295 2.388 21.4539 2.27281 21.1916 2.34125L19.4935 2.78475C19.1511 2.52044 18.773 2.30031 18.3673 2.13312L17.9028 0.442437C17.831 0.181125 17.5933 0 17.3223 0H15.6792C15.4082 0 15.1707 0.181125 15.0988 0.442437L14.6343 2.13312C14.2285 2.30031 13.8505 2.52044 13.5081 2.78475L11.81 2.34125C11.5478 2.27275 11.2721 2.388 11.1366 2.62269L10.315 4.04569C10.1795 4.28038 10.2176 4.57669 10.408 4.76956L11.6411 6.01844C11.6129 6.23125 11.5969 6.44794 11.5969 6.66844C11.5969 6.88894 11.6129 7.10562 11.6411 7.31844L10.408 8.56731C10.2176 8.76012 10.1796 9.05644 10.3151 9.29119L11.1366 10.7142C11.2721 10.9489 11.5478 11.0641 11.81 10.9956L13.5081 10.5521C13.8506 10.8164 14.2286 11.0366 14.6344 11.2037L15.099 12.8944C15.1708 13.1557 15.4083 13.3369 15.6793 13.3369H17.3225C17.5935 13.3369 17.8311 13.1557 17.9028 12.8944L18.3674 11.2037C18.7732 11.0366 19.1511 10.8164 19.4936 10.5521L21.1918 10.9956C21.454 11.0641 21.7296 10.9489 21.8651 10.7142L22.6867 9.29119C22.8222 9.0565 22.7842 8.76019 22.5938 8.56731L21.3607 7.31844C21.3887 7.10562 21.4047 6.88894 21.4047 6.66844ZM17.9919 5.17725C19.6515 7.35606 17.1885 9.81906 15.0096 8.15962C13.3501 5.98081 15.8131 3.51769 17.9919 5.17725Z" fill="#EC6B59"/>
<path d="M10.7061 19.6155C10.7061 20.1969 11.1773 20.6681 11.7587 20.6681H21.2415C21.8229 20.6681 22.2941 20.1969 22.2941 19.6155C22.2941 19.0341 21.8229 18.5629 21.2415 18.5629H11.7587C11.1774 18.5629 10.7061 19.0342 10.7061 19.6155Z" fill="#3872B7"/>
<path d="M25.8419 26.1783H22.8935C22.7188 26.1783 22.5771 26.0367 22.5771 25.862V22.3183C22.5771 22.1436 22.7188 22.002 22.8935 22.002H25.8419C26.0166 22.002 26.1583 22.1436 26.1583 22.3183V25.862C26.1583 26.0366 26.0166 26.1783 25.8419 26.1783Z" fill="#7CCCF2"/>
<path d="M10.1075 26.1783H7.15915C6.9844 26.1783 6.84277 26.0367 6.84277 25.862V22.3183C6.84277 22.1436 6.9844 22.002 7.15915 22.002H10.1075C10.2823 22.002 10.4239 22.1436 10.4239 22.3183V25.862C10.424 26.0366 10.2823 26.1783 10.1075 26.1783Z" fill="#7CCCF2"/>
<path d="M3.09961 30.2885V31.6836C3.09961 31.8584 3.24123 32 3.41598 32H29.5848C29.7596 32 29.9012 31.8584 29.9012 31.6836V30.2885C29.9012 30.1138 29.7596 29.9722 29.5848 29.9722H3.41598C3.2413 29.9721 3.09961 30.1138 3.09961 30.2885Z" fill="#EC6B59"/>
<path d="M29.5852 29.9722H27.7783C27.9531 29.9722 28.0947 30.1139 28.0947 30.2885V31.6836C28.0947 31.8584 27.9531 32 27.7783 32H29.5852C29.7599 32 29.9016 31.8583 29.9016 31.6836V30.2885C29.9016 30.1139 29.7599 29.9722 29.5852 29.9722Z" fill="#BC4142"/>
</svg>
