<svg width="33" height="32" viewBox="0 0 33 32" fill="none" xmlns="http://www.w3.org/2000/svg">
<path d="M17.1668 10.6667L13.8335 16H19.1668L15.8335 21.3333" stroke="#7CCCF2" stroke-width="1.5" stroke-linecap="round" stroke-linejoin="round"/>
<path d="M28.5145 18.8521C29.2104 18.6607 29.5584 18.5649 29.6957 18.3819C29.8332 18.1988 29.8332 17.9043 29.8332 17.3153V14.6848C29.8332 14.0959 29.8332 13.8013 29.6957 13.6183C29.5582 13.4352 29.2104 13.3395 28.5145 13.148C25.914 12.4324 24.2864 9.65844 24.9576 7.02242C25.1421 6.29749 25.2344 5.93502 25.1462 5.72244C25.0581 5.50985 24.8053 5.36334 24.2994 5.07034L21.9998 3.73818C21.5036 3.45068 21.2554 3.30692 21.0328 3.33753C20.81 3.36814 20.5588 3.6239 20.0561 4.13544C18.1105 6.11586 14.8913 6.11578 12.9456 4.1353C12.4431 3.62377 12.1918 3.36801 11.9691 3.3374C11.7464 3.30678 11.4982 3.45054 11.0019 3.73805L8.70229 5.07022C8.19654 5.3632 7.94366 5.50969 7.85554 5.72225C7.76741 5.93481 7.85966 6.29732 8.04417 7.02233C8.715 9.65841 7.08613 12.4325 4.4852 13.148C3.78933 13.3395 3.4414 13.4352 3.30394 13.6183C3.1665 13.8013 3.1665 14.0957 3.1665 14.6848V17.3153C3.1665 17.9043 3.1665 18.1988 3.30394 18.3819C3.44137 18.5649 3.78932 18.6607 4.4852 18.8521C7.0857 19.5677 8.71328 22.3417 8.04213 24.9777C7.85756 25.7027 7.76526 26.0651 7.85338 26.2777C7.94152 26.4903 8.1944 26.6368 8.70017 26.9297L10.9998 28.262C11.4961 28.5495 11.7443 28.6932 11.967 28.6627C12.1898 28.632 12.441 28.3761 12.9435 27.8647C14.8901 25.8825 18.1116 25.8825 20.0584 27.8645C20.5608 28.3761 20.812 28.6319 21.0348 28.6625C21.2574 28.6931 21.5057 28.5493 22.002 28.2619L24.3016 26.9296C24.8074 26.6367 25.0604 26.4901 25.1484 26.2775C25.2365 26.0649 25.1442 25.7024 24.9596 24.9776C24.2881 22.3417 25.9144 19.5677 28.5145 18.8521Z" stroke="#7CCCF2" stroke-width="1.5" stroke-linecap="round"/>
</svg>
