<svg width="33" height="32" viewBox="0 0 33 32" fill="none" xmlns="http://www.w3.org/2000/svg">
<path d="M3.16699 18.5157C3.16699 13.6341 3.16699 11.1933 4.60509 9.64688C4.65822 9.58975 4.71258 9.53383 4.76813 9.47919C6.27163 8 8.6446 8 13.3906 8C14.5153 8 15.0571 8.004 15.5729 8.20199C16.0695 8.39264 16.4855 8.74921 17.3175 9.46239L19.5949 11.4143C20.6958 12.358 21.2462 12.8298 21.5399 13.4748C21.8337 14.1199 21.8337 14.8569 21.8337 16.3309V19.7333C21.8337 23.7331 21.8337 25.7329 20.8434 27.1348C20.5235 27.5876 20.1365 27.9859 19.6962 28.3148C18.3333 29.3333 16.389 29.3333 12.5003 29.3333C8.61171 29.3333 6.66741 29.3333 5.30441 28.3148C4.86421 27.9859 4.4771 27.5876 4.15727 27.1348C3.16699 25.7329 3.16699 23.7331 3.16699 19.7333V18.5157Z" stroke="#FF6900" stroke-width="1.5"/>
<path d="M21.8035 21.3333C25.1489 21.3333 26.8215 21.3333 27.9942 20.4421C28.3729 20.1542 28.7059 19.8058 28.981 19.4096C29.833 18.1829 29.833 16.433 29.833 12.9333V9.9562C29.833 8.6664 29.833 8.02151 29.5803 7.45711C29.3277 6.89271 28.8541 6.47985 27.9069 5.65416L25.9478 3.94621C25.2319 3.3222 24.8741 3.01019 24.4469 2.84337C24.0031 2.67013 23.537 2.66663 22.5694 2.66663C18.4865 2.66663 16.445 2.66663 15.1515 3.96091C15.1037 4.00873 15.057 4.05765 15.0113 4.10764C14.2226 4.97024 13.9366 6.15084 13.833 7.99996" stroke="#FF6900" stroke-width="1.5"/>
</svg>
