<svg width="32" height="32" viewBox="0 0 32 32" fill="none" xmlns="http://www.w3.org/2000/svg">
<path d="M26.8983 3.26672H5.16504C4.03173 3.26672 3.16504 4.13341 3.16504 5.26672V30C3.16504 31.1333 4.03173 32 5.16504 32H26.8317C27.965 32 28.8317 31.1333 28.8317 30V5.26672C28.8984 4.20004 27.965 3.26672 26.8983 3.26672Z" fill="#FFD15C"/>
<path d="M26.1653 5.93335H5.83203V29.2667H26.1653V5.93335Z" fill="white"/>
<path d="M18.2981 2.2C18.2314 0.933313 17.2314 0 16.0314 0C14.8314 0 13.8314 0.933313 13.7647 2.2C11.3647 2.2 9.49805 4.13331 9.49805 6.46669H22.5648C22.5648 4.06669 20.6314 2.2 18.2981 2.2Z" fill="#415A6B"/>
<path d="M16.0312 2.9333C16.4362 2.9333 16.7645 2.60498 16.7645 2.19999C16.7645 1.79499 16.4362 1.46667 16.0312 1.46667C15.6262 1.46667 15.2979 1.79499 15.2979 2.19999C15.2979 2.60498 15.6262 2.9333 16.0312 2.9333Z" fill="white"/>
<path d="M10.4984 13.6667C10.4317 13.7334 10.2984 13.8 10.1651 13.8667C9.96508 13.9334 9.76508 13.8667 9.63177 13.6667L8.09845 12.1334C7.83177 11.8667 7.83177 11.4667 8.09845 11.2667C8.36514 11 8.76514 11 8.96514 11.2667L9.89845 12.1334C10.5651 11 11.3651 10 12.4317 9.20002C12.6984 9.00002 13.0984 9.06671 13.2984 9.33334C13.4984 9.60002 13.4317 10 13.1651 10.2C12.0984 11.0667 11.2318 12.1333 10.6318 13.4C10.6317 13.5333 10.5651 13.6 10.4984 13.6667Z" fill="#F3705A"/>
<path d="M24.0982 9.66675H14.6982V10.6001H24.0982V9.66675Z" fill="#E8EAE9"/>
<path d="M19.5649 12.2667H14.6982V13.2H19.5649V12.2667Z" fill="#E8EAE9"/>
<path d="M10.4984 20.1333C10.4317 20.2 10.2984 20.2667 10.1651 20.3334C9.96508 20.4 9.76508 20.3333 9.63177 20.1333L8.09845 18.6667C7.83177 18.4 7.83177 18 8.09845 17.8C8.36514 17.5333 8.76514 17.5333 8.96514 17.8L9.89845 18.6667C10.5651 17.5333 11.3651 16.5333 12.4318 15.7333C12.6985 15.5333 13.0985 15.6 13.2985 15.8667C13.4985 16.1333 13.4318 16.5333 13.1651 16.7333C12.0985 17.6 11.2318 18.6667 10.6318 19.9334C10.6317 20 10.5651 20.0667 10.4984 20.1333Z" fill="#66C6B9"/>
<path d="M24.0982 16.2H14.6982V17.1333H24.0982V16.2Z" fill="#E8EAE9"/>
<path d="M19.5649 18.7999H14.6982V19.7332H19.5649V18.7999Z" fill="#E8EAE9"/>
<path d="M10.4984 26.6667C10.4317 26.7334 10.2984 26.8 10.1651 26.8667C9.96508 26.9334 9.76508 26.8667 9.63177 26.6667L8.09845 25.1334C7.83177 24.8667 7.83177 24.4667 8.09845 24.2667C8.36514 24 8.76514 24 8.96514 24.2667L9.89845 25.1334C10.5651 24 11.3651 23 12.4317 22.2C12.6984 22 13.0984 22.0667 13.2984 22.3333C13.4984 22.6 13.4317 23 13.1651 23.2C12.0984 24.0667 11.2318 25.1333 10.6318 26.4C10.6317 26.5333 10.5651 26.6 10.4984 26.6667Z" fill="#F3705A"/>
<path d="M24.0982 22.6667H14.6982V23.6001H24.0982V22.6667Z" fill="#E8EAE9"/>
<path d="M19.5649 25.2667H14.6982V26.2H19.5649V25.2667Z" fill="#E8EAE9"/>
</svg>
