<svg width="32" height="32" viewBox="0 0 32 32" fill="none" xmlns="http://www.w3.org/2000/svg">
<path d="M3.3335 16C3.3335 10.0289 3.3335 7.0433 5.18848 5.1883C7.04348 3.33331 10.029 3.33331 16.0002 3.33331C21.9712 3.33331 24.9568 3.33331 26.8119 5.1883C28.6668 7.0433 28.6668 10.0289 28.6668 16C28.6668 21.971 28.6668 24.9566 26.8119 26.8117C24.9568 28.6666 21.9712 28.6666 16.0002 28.6666C10.029 28.6666 7.04348 28.6666 5.18848 26.8117C3.3335 24.9566 3.3335 21.971 3.3335 16Z" stroke="#66C6B9" stroke-width="1.5"/>
<path d="M14.6665 9.33331H22.6665" stroke="#66C6B9" stroke-width="1.5" stroke-linecap="round"/>
<path d="M9.3335 9.33331H10.6668" stroke="#66C6B9" stroke-width="1.5" stroke-linecap="round"/>
<path d="M9.3335 16H10.6668" stroke="#66C6B9" stroke-width="1.5" stroke-linecap="round"/>
<path d="M9.3335 22.6667H10.6668" stroke="#66C6B9" stroke-width="1.5" stroke-linecap="round"/>
<path d="M14.6665 16H22.6665" stroke="#66C6B9" stroke-width="1.5" stroke-linecap="round"/>
<path d="M14.6665 22.6667H22.6665" stroke="#66C6B9" stroke-width="1.5" stroke-linecap="round"/>
</svg>
