<svg width="32" height="32" viewBox="0 0 32 32" fill="none" xmlns="http://www.w3.org/2000/svg">
<path d="M3.33301 16C3.33301 10.0289 3.33301 7.04336 5.18799 5.18836C7.04299 3.33337 10.0286 3.33337 15.9997 3.33337C21.9707 3.33337 24.9563 3.33337 26.8114 5.18836C28.6663 7.04336 28.6663 10.0289 28.6663 16C28.6663 21.9711 28.6663 24.9567 26.8114 26.8118C24.9563 28.6667 21.9707 28.6667 15.9997 28.6667C10.0286 28.6667 7.04299 28.6667 5.18799 26.8118C3.33301 24.9567 3.33301 21.9711 3.33301 16Z" stroke="#00A4FF" stroke-width="1.5"/>
<path d="M21.0681 21.0677L10.9325 10.9322M21.0681 21.0677C21.6595 20.4764 21.0801 17.6869 21.0681 16.8446M21.0681 21.0677C20.4767 21.6592 17.6873 21.0797 16.845 21.0677M10.9325 10.9322C11.524 10.3407 14.3134 10.9202 15.1557 10.9322M10.9325 10.9322C10.3411 11.5236 10.9206 14.313 10.9325 15.1553" stroke="#00A4FF" stroke-width="1.5" stroke-linecap="round" stroke-linejoin="round"/>
</svg>
